<?xml version="1.0" encoding="UTF-8" standalone="no"?>
<!DOCTYPE svg PUBLIC "-//W3C//DTD SVG 1.1//EN" "http://www.w3.org/Graphics/SVG/1.1/DTD/svg11.dtd">
<svg width="100%" height="100%" viewBox="0 0 670 670" version="1.1" xmlns="http://www.w3.org/2000/svg" xmlns:xlink="http://www.w3.org/1999/xlink" xml:space="preserve" xmlns:serif="http://www.serif.com/" style="fill-rule:evenodd;clip-rule:evenodd;stroke-linecap:round;stroke-linejoin:round;stroke-miterlimit:1.5;">
    <g transform="matrix(6.12323e-17,1,-1,6.12323e-17,783.081,-166)">
        <g transform="matrix(1,0,0,1,83.1372,-73.9985)">
            <path d="M284.043,359.563C262.158,359.563 240.364,363.981 220.194,372.467C200.752,380.646 182.937,392.742 168.03,407.649C131.007,444.672 110.516,502.988 123.491,554.873C130.308,582.133 133.085,588.96 147.219,613.245C155.058,626.713 166.807,639.103 178.596,649.153C191.064,659.783 205.108,668.464 220.194,674.858C240.319,683.388 262.192,687.762 284.043,687.762C305.894,687.762 327.768,683.388 347.893,674.858C362.979,668.464 377.022,659.783 389.491,649.153C401.28,639.103 413.029,626.713 420.867,613.245C435.002,588.96 437.779,582.133 444.596,554.873C457.571,502.988 437.079,444.672 400.057,407.649C385.149,392.742 367.335,380.646 347.893,372.467C327.723,363.981 305.929,359.563 284.043,359.563L284.043,327.495C310.206,327.495 336.258,332.777 360.37,342.921C383.611,352.699 404.907,367.158 422.727,384.978C440.537,402.788 455.035,424.095 464.785,447.336C505.757,545.004 457.982,663.031 360.37,704.404C336.312,714.601 310.164,719.83 284.043,719.83C257.881,719.83 231.828,714.548 207.717,704.404C184.476,694.626 163.18,680.167 145.359,662.347C127.55,644.537 113.052,623.23 103.302,599.989C62.33,502.32 110.105,384.294 207.717,342.921C231.775,332.724 257.922,327.495 284.043,327.495" style="fill:url(#_Linear1);stroke:rgb(178,178,178);stroke-opacity:0;stroke-width:7.5px;"/>
        </g>
        <g transform="matrix(1,0,0,1,82.1372,-75.9985)">
            <path d="M419.705,464.095C393.583,464.095 367.436,469.325 343.378,479.521C245.766,520.894 197.991,638.921 238.963,736.589C248.713,759.83 263.211,781.137 281.02,798.947C298.841,816.767 320.137,831.227 343.378,841.004C367.49,851.148 393.542,856.43 419.705,856.43C445.826,856.43 471.973,851.201 496.031,841.004C593.643,799.632 641.418,681.605 600.446,583.936C590.696,560.695 576.198,539.388 558.389,521.579C540.568,503.758 519.272,489.299 496.031,479.521C471.919,469.377 445.867,464.095 419.705,464.095L419.705,496.163C441.59,496.163 463.384,500.582 483.554,509.067C502.996,517.247 520.811,529.342 535.718,544.25C572.74,581.272 593.232,639.588 580.257,691.474C573.44,718.733 570.663,725.561 556.529,749.846C548.69,763.313 536.941,775.704 525.152,785.754C512.684,796.383 498.64,805.065 483.554,811.458C463.425,819.989 441.558,824.351 419.705,824.363C397.835,824.375 376.044,820.012 355.855,811.615C336.441,803.539 318.617,791.576 303.691,776.776C288.828,762.039 276.58,744.297 268.509,724.956C234.648,643.812 273.718,545.394 354.378,509.871C374.892,500.836 397.277,496.163 419.705,496.163" style="fill:url(#_Linear2);stroke:rgb(178,178,178);stroke-opacity:0;stroke-width:7.5px;"/>
        </g>
        <g transform="matrix(1,0,0,1,214.285,-212.182)">
            <path d="M285.047,568.723C277.136,576.44 269.915,534.503 263.433,543.38" style="fill:url(#_Linear3);stroke:rgb(178,178,178);stroke-opacity:0;stroke-width:7.5px;"/>
        </g>
        <g transform="matrix(1,0,0,1,215.285,-212.182)">
            <path d="M263.433,543.38C223.699,597.795 211.736,671.687 238.963,736.589C248.713,759.83 263.211,781.137 281.02,798.947C298.841,816.767 320.137,831.227 343.378,841.004C367.49,851.148 393.542,856.43 419.705,856.43C445.826,856.43 471.973,851.201 496.031,841.004C593.643,799.632 641.418,681.605 600.446,583.936C590.696,560.695 576.198,539.388 558.389,521.579C540.568,503.758 519.272,489.299 496.031,479.521C471.919,469.377 445.867,464.095 419.705,464.095L419.705,496.163C441.59,496.163 463.384,500.582 483.554,509.067C502.996,517.247 520.811,529.342 535.718,544.25C572.74,581.272 593.232,639.588 580.257,691.474C573.44,718.733 570.663,725.561 556.529,749.846C548.69,763.313 536.941,775.704 525.152,785.754C512.684,796.383 498.64,805.065 483.554,811.458C463.425,819.989 441.558,824.351 419.705,824.363C397.835,824.375 376.044,820.012 355.855,811.615C336.441,803.539 318.617,791.576 303.691,776.776C288.828,762.039 276.58,744.297 268.509,724.956C246.802,672.937 255.067,613.819 285.047,568.723" style="fill:url(#_Linear4);stroke:rgb(178,178,178);stroke-opacity:0;stroke-width:7.5px;"/>
        </g>
        <g transform="matrix(0.999957,1.23083e-32,1.2178e-32,0.994902,81.8939,-71.0313)">
            <path d="M419.705,189.729C393.583,189.729 367.436,194.958 343.378,205.155C245.766,246.527 197.991,364.554 238.963,462.223C248.713,485.464 263.211,506.771 281.02,524.58C298.841,542.401 320.137,556.86 343.378,566.637C367.49,576.782 393.542,582.063 419.705,582.063C445.826,582.063 471.973,576.834 496.031,566.637C593.643,525.265 641.418,407.238 600.446,309.569C590.696,286.328 576.198,265.022 558.389,247.212C540.568,229.392 519.272,214.932 496.031,205.155C471.919,195.011 445.867,189.729 419.705,189.729L419.705,221.796C441.59,221.796 463.384,226.215 483.554,234.701C502.996,242.88 520.811,254.975 535.718,269.883C572.74,306.905 593.232,365.222 580.257,417.107C573.44,444.367 570.663,451.194 556.529,475.479C548.69,488.947 536.941,501.337 525.152,511.387C512.684,522.017 498.64,530.697 483.554,537.092C463.429,545.622 441.556,549.996 419.705,549.996C397.853,549.996 375.98,545.622 355.855,537.092C340.769,530.697 326.725,522.017 314.257,511.387C302.468,501.337 290.719,488.947 282.88,475.479C268.746,451.194 265.969,444.367 259.152,417.107C246.177,365.222 266.669,306.905 303.691,269.883C318.598,254.975 336.413,242.88 355.855,234.701C376.025,226.215 397.819,221.796 419.705,221.796" style="fill:url(#_Linear5);"/>
        </g>
        <g transform="matrix(1.01295,-8.7202e-35,-3.71751e-32,0.999445,77.6398,-75.5772)">
            <path d="M417.195,294.229C386.236,294.229 354.603,304.983 326.089,317.068C210.398,366.104 157.628,499.481 206.189,615.239C217.744,642.785 236.851,665.265 257.959,686.373C279.08,707.494 299.186,729.357 326.731,740.945C355.309,752.968 386.187,759.229 417.195,759.229C448.154,759.229 478.502,749.776 507.016,737.691C535.153,725.765 558.711,708.415 579.07,687.836C642.422,623.8 666.107,525.536 629.356,437.932C617.801,410.386 602.673,383.467 581.565,362.358C560.444,341.238 535.203,324.1 507.658,312.512C479.08,300.489 448.203,294.229 417.195,294.229L417.195,332.235C443.134,332.235 468.964,337.472 492.87,347.53C515.912,357.224 537.027,371.56 554.695,389.228C589.651,424.184 606.333,475.157 607.556,525.533C607.867,538.393 604.017,568.789 600.89,581.295C592.81,613.604 596.113,604.12 579.36,632.903C570.07,648.865 556.144,663.551 542.172,675.462C527.395,688.06 510.75,698.349 492.87,705.927C469.017,716.037 443.093,721.222 417.195,721.222C391.296,721.222 365.372,716.037 341.519,705.927C323.639,698.349 306.995,688.06 292.217,675.462C278.245,663.551 264.319,648.865 255.029,632.903C238.276,604.12 234.985,596.028 226.906,563.72C211.528,502.225 235.815,433.108 279.694,389.228C297.362,371.56 318.477,357.224 341.519,347.53C365.425,337.472 391.255,332.235 417.195,332.235" style="fill:url(#_Linear6);stroke:rgb(178,178,178);stroke-opacity:0;stroke-width:3.98px;"/>
        </g>
        <g transform="matrix(1,0,0,1,214.285,-212.182)">
            <path d="M285.047,518.427C287.733,523.577 294.45,527.29 297.089,530.772C301.294,535.365 303.818,539.719 307.367,539.972C317.126,540.665 326.123,526.251 334.05,522.079C349.231,514.091 366.314,504.969 388.558,500.214C405.578,496.575 426.487,496.166 446.685,496.746C455.858,496.368 443.032,474.786 440.734,467.432C439.861,464.635 421.922,466.011 419.705,464.095C418.141,462.745 415.582,463.611 413.518,463.71C407.42,464.003 386.495,466.819 382.609,467.671C362.855,471.999 348.132,476.608 330.128,485.952C313.603,494.528 298.381,505.42 285.047,518.427Z" style="fill:url(#_Linear7);stroke:rgb(178,178,178);stroke-opacity:0;stroke-width:7.5px;"/>
        </g>
    </g>
    <g transform="matrix(6.12323e-17,1,-1,6.12323e-17,783.081,-166)">
        <g>
            <g>
                <g transform="matrix(1,0,0,1,351.776,-74.9985)">
                    <path d="M121.686,547.642C120.538,539.814 119.944,531.807 119.944,523.662C119.944,489.341 130.503,457.466 148.547,431.113" style="fill:none;stroke:white;stroke-width:4px;"/>
                </g>
                <g transform="matrix(1,0,0,1,351.776,-74.9985)">
                    <path d="M169.875,405.832C199.422,377.198 239.689,359.563 284.043,359.563C293.724,359.563 303.209,360.403 312.431,362.014" style="fill:none;stroke:white;stroke-width:4px;"/>
                </g>
                <g transform="matrix(1,0,0,1,351.776,-74.9985)">
                    <path d="M346.233,371.775C406.003,396.3 448.143,455.099 448.143,523.662C448.143,604.551 389.491,671.849 312.431,685.311" style="fill:none;stroke:white;stroke-width:4px;"/>
                </g>
                <g transform="matrix(1,0,0,1,351.776,-74.9985)">
                    <path d="M257.97,685.698C199.486,676.345 151.277,636.044 130.686,582.141" style="fill:none;stroke:white;stroke-width:4px;"/>
                </g>
                <g transform="matrix(1,0,0,1,351.776,-74.9985)">
                    <path d="M88.46,538.894C88.073,533.867 87.876,528.788 87.876,523.662C87.876,479.699 102.369,439.094 126.835,406.369" style="fill:none;stroke:white;stroke-width:4px;"/>
                </g>
                <g transform="matrix(1,0,0,1,351.776,-74.9985)">
                    <path d="M148.316,382.083C183.566,348.279 231.397,327.495 284.043,327.495C290.281,327.495 296.452,327.787 302.542,328.358C302.955,328.396 303.368,328.436 303.781,328.478" style="fill:none;stroke:white;stroke-width:4px;"/>
                </g>
                <g transform="matrix(1,0,0,1,351.776,-74.9985)">
                    <path d="M339.661,335.504C420.877,359.506 480.211,434.71 480.211,523.662C480.211,631.93 392.311,719.83 284.043,719.83C281.332,719.83 273.626,719.689 270.999,719.179" style="fill:none;stroke:white;stroke-width:4px;"/>
                </g>
                <g transform="matrix(1,0,0,1,351.776,-74.9985)">
                    <path d="M216.32,707.807C157.214,686.036 111.441,636.601 94.738,575.237" style="fill:none;stroke:white;stroke-width:4px;"/>
                </g>
            </g>
            <g transform="matrix(1,0,0,1,217.798,60.602)">
                <path d="M99.828,456.132C121.132,398.103 169.092,352.897 228.837,335.383" style="fill:none;stroke:white;stroke-width:4px;"/>
            </g>
            <g>
                <g transform="matrix(1,0,0,1,217.798,-211.765)">
                    <path d="M166.628,638.257C166.201,637.82 165.777,637.38 165.356,636.939C137.227,607.477 119.944,567.572 119.944,523.662C119.944,515.87 120.488,508.204 121.54,500.7" style="fill:none;stroke:white;stroke-width:4px;"/>
                </g>
                <g transform="matrix(1,0,0,1,217.798,-211.765)">
                    <path d="M130.279,466.261C153.572,403.965 213.663,359.563 284.043,359.563C366.103,359.563 434.175,419.925 446.243,498.632" style="fill:none;stroke:white;stroke-width:4px;"/>
                </g>
                <g transform="matrix(1,0,0,1,217.798,-211.765)">
                    <path d="M444.735,557.063C433.46,611.503 395.18,656.11 344.55,676.23" style="fill:none;stroke:white;stroke-width:4px;"/>
                </g>
                <g transform="matrix(1,0,0,1,217.798,-211.765)">
                    <path d="M309.314,685.825C301.076,687.1 292.636,687.762 284.043,687.762C250.16,687.762 218.662,677.471 192.506,659.846" style="fill:none;stroke:white;stroke-width:4px;"/>
                </g>
                <g transform="matrix(1,0,0,1,217.798,-211.765)">
                    <path d="M94.337,473.585C116.495,389.542 193.08,327.495 284.043,327.495C392.311,327.495 480.211,415.395 480.211,523.662C480.211,529.012 479.996,534.312 479.575,539.555" style="fill:none;stroke:white;stroke-width:4px;"/>
                </g>
                <g transform="matrix(1,0,0,1,217.798,-211.765)">
                    <path d="M465.344,598.653C442.753,653.15 396.294,695.29 339.037,712.004" style="fill:none;stroke:white;stroke-width:4px;"/>
                </g>
                <g transform="matrix(1,0,0,1,217.798,-211.765)">
                    <path d="M302.508,718.971C296.429,719.539 290.27,719.83 284.043,719.83C240.388,719.83 200.043,705.538 167.438,681.383" style="fill:none;stroke:white;stroke-width:4px;"/>
                </g>
                <g transform="matrix(1,0,0,1,217.798,-211.765)">
                    <path d="M142.902,659.846C108.84,624.553 87.876,576.537 87.876,523.662C87.876,519.318 88.017,515.006 88.296,510.732" style="fill:none;stroke:white;stroke-width:4px;"/>
                </g>
            </g>
            <g transform="matrix(1,0,0,1,217.798,60.602)">
                <path d="M265.729,328.34C271.759,327.781 277.868,327.495 284.043,327.495C327.387,327.495 367.466,341.583 399.948,365.425" style="fill:none;stroke:white;stroke-width:4px;"/>
            </g>
            <g transform="matrix(1,0,0,1,217.798,60.602)">
                <path d="M425.184,387.479C459.247,422.772 480.211,470.788 480.211,523.662C480.211,529.22 479.979,534.725 479.525,540.166" style="fill:none;stroke:white;stroke-width:4px;"/>
            </g>
            <g transform="matrix(1,0,0,1,217.798,60.602)">
                <path d="M472.896,576.871C449.681,659.32 373.873,719.83 284.043,719.83C175.776,719.83 87.876,631.93 87.876,523.662C87.876,522.369 88.284,512.172 88.309,510.884" style="fill:none;stroke:white;stroke-width:4px;"/>
            </g>
            <g transform="matrix(1.18521,0,0,1.18521,162.68,-169.921)">
                <path d="M284.043,359.563C302.265,359.563 319.796,362.539 336.179,368.031" style="fill:none;stroke:white;stroke-width:3.37px;"/>
            </g>
            <g transform="matrix(1.18521,0,0,1.18521,162.68,-169.921)">
                <path d="M373.942,386.389C418.618,415.723 448.143,466.272 448.143,523.662C448.143,541.354 445.338,558.395 440.147,574.365" style="fill:none;stroke:white;stroke-width:3.37px;"/>
            </g>
            <g transform="matrix(1.18521,0,0,1.18521,162.68,-169.921)">
                <path d="M421.7,612.975C392.424,657.979 341.684,687.762 284.043,687.762C265.177,687.762 247.049,684.571 230.172,678.701" style="fill:none;stroke:white;stroke-width:3.37px;"/>
            </g>
            <g transform="matrix(1.18521,0,0,1.18521,162.68,-169.921)">
                <path d="M193.296,660.375C149.095,630.961 119.944,580.689 119.944,523.662C119.944,503.108 123.731,483.43 130.645,465.291" style="fill:none;stroke:white;stroke-width:3.37px;"/>
            </g>
            <g transform="matrix(1.18521,0,0,1.18521,162.68,-169.921)">
                <path d="M149.615,429.573C179.307,387.25 228.467,359.563 284.043,359.563" style="fill:none;stroke:white;stroke-width:3.37px;"/>
            </g>
            <g transform="matrix(1.18521,0,0,1.18521,162.68,-169.921)">
                <path d="M147.705,387.226C182.668,354.979 232.777,327.495 284.043,327.495C321.784,327.495 355.032,337.905 384.962,356.407" style="fill:none;stroke:white;stroke-width:3.37px;"/>
            </g>
            <g transform="matrix(1.18521,0,0,1.18521,162.68,-169.921)">
                <path d="M149.615,661.057C115.411,625.741 87.876,576.661 87.876,523.662C87.876,484.001 99.672,447.073 119.944,416.198" style="fill:none;stroke:white;stroke-width:3.37px;"/>
            </g>
            <g transform="matrix(1.18521,0,0,1.18521,162.68,-169.921)">
                <path d="M423.154,385.406C458.412,420.88 480.211,469.746 480.211,523.662C480.211,560.962 469.778,595.845 451.673,625.548" style="fill:none;stroke:white;stroke-width:3.37px;"/>
            </g>
            <g transform="matrix(1.18521,0,0,1.18521,162.68,-169.921)">
                <path d="M422.865,658.393C387.408,693.535 337.859,719.83 284.043,719.83C245.601,719.83 209.726,708.748 179.443,689.607" style="fill:none;stroke:white;stroke-width:3.37px;"/>
            </g>
            <g transform="matrix(1,0,0,1,82.1372,-72.9985)">
                <path d="M230.466,712.411C148.206,689.074 87.876,613.358 87.876,523.662C87.876,415.395 175.776,327.495 284.043,327.495C286.243,327.495 298.834,327.423 301.017,327.495M264.18,686.57C263.467,686.484 258.483,685.833 256.802,685.492" style="fill:none;stroke:white;stroke-width:4px;"/>
            </g>
            <g transform="matrix(1,0,0,1,82.1372,-72.9985)">
                <path d="M355.187,340.814C411.194,362.647 454.736,409.485 472.063,467.578" style="fill:none;stroke:white;stroke-width:4px;"/>
            </g>
            <g transform="matrix(1,0,0,1,82.1372,-72.9985)">
                <path d="M479.408,505.813C479.939,511.692 480.211,517.646 480.211,523.662C480.211,567.494 465.804,607.987 441.472,640.662" style="fill:none;stroke:white;stroke-width:4px;"/>
            </g>
            <g transform="matrix(1,0,0,1,82.1372,-72.9985)">
                <path d="M419.009,665.968C383.834,699.343 336.312,719.83 284.043,719.83C278.955,719.83 273.911,719.636 268.92,719.254" style="fill:none;stroke:white;stroke-width:4px;"/>
            </g>
            <g transform="matrix(1,0,0,1,82.1372,-72.9985)">
                <path d="M223.537,676.23C162.876,652.125 119.944,592.868 119.944,523.662C119.944,442.612 178.83,375.207 256.117,361.934" style="fill:none;stroke:white;stroke-width:4px;"/>
            </g>
            <g transform="matrix(1,0,0,1,82.1372,-72.9985)">
                <path d="M310.194,361.639C367.155,370.777 414.36,409.273 435.775,461.095" style="fill:none;stroke:white;stroke-width:4px;"/>
            </g>
            <g transform="matrix(1,0,0,1,82.1372,-72.9985)">
                <path d="M445.692,495.272C447.303,504.495 448.143,513.981 448.143,523.662C448.143,557.623 437.804,589.188 420.105,615.38" style="fill:none;stroke:white;stroke-width:4px;"/>
            </g>
            <g transform="matrix(1,0,0,1,82.1372,-72.9985)">
                <path d="M397.885,641.808C368.369,670.257 328.234,687.762 284.043,687.762C277.321,687.762 270.692,687.357 264.18,686.57" style="fill:none;stroke:white;stroke-width:4px;"/>
            </g>
            <g transform="matrix(1,0,0,1,218.798,60.602)">
                <path d="M436.586,584.229C412.466,644.858 353.225,687.762 284.043,687.762C203.895,687.762 137.09,630.179 122.778,554.162" style="fill:none;stroke:white;stroke-width:4px;"/>
            </g>
            <g transform="matrix(1,0,0,1,217.798,60.602)">
                <path d="M121.755,499.22C130.353,441.746 168.802,393.975 220.797,372.213" style="fill:none;stroke:white;stroke-width:4px;"/>
            </g>
            <g transform="matrix(1,0,0,1,217.798,60.602)">
                <path d="M256.629,361.847C265.545,360.345 274.703,359.563 284.043,359.563C317.927,359.563 349.425,369.854 375.581,387.479" style="fill:none;stroke:white;stroke-width:4px;"/>
            </g>
            <g transform="matrix(1,0,0,1,218.798,60.602)">
                <path d="M401.143,408.746C430.208,438.359 448.143,478.933 448.143,523.662C448.143,532.562 447.433,541.296 446.067,549.813" style="fill:none;stroke:white;stroke-width:4px;"/>
            </g>
        </g>
    </g>
    <defs>
        <linearGradient id="_Linear1" x1="0" y1="0" x2="1" y2="0" gradientUnits="userSpaceOnUse" gradientTransform="matrix(658.703,0,0,666.702,170.733,447.081)"><stop offset="0" style="stop-color:rgb(35,40,83);stop-opacity:1"/><stop offset="0.29" style="stop-color:rgb(111,156,183);stop-opacity:1"/><stop offset="0.51" style="stop-color:rgb(146,210,229);stop-opacity:1"/><stop offset="1" style="stop-color:rgb(146,210,229);stop-opacity:1"/></linearGradient>
        <linearGradient id="_Linear2" x1="0" y1="0" x2="1" y2="0" gradientUnits="userSpaceOnUse" gradientTransform="matrix(658.703,0,0,666.702,170.733,447.081)"><stop offset="0" style="stop-color:rgb(35,40,83);stop-opacity:1"/><stop offset="0.29" style="stop-color:rgb(111,156,183);stop-opacity:1"/><stop offset="0.51" style="stop-color:rgb(146,210,229);stop-opacity:1"/><stop offset="1" style="stop-color:rgb(146,210,229);stop-opacity:1"/></linearGradient>
        <linearGradient id="_Linear3" x1="0" y1="0" x2="1" y2="0" gradientUnits="userSpaceOnUse" gradientTransform="matrix(658.703,0,0,666.702,170.733,447.081)"><stop offset="0" style="stop-color:rgb(35,40,83);stop-opacity:1"/><stop offset="0.29" style="stop-color:rgb(111,156,183);stop-opacity:1"/><stop offset="0.51" style="stop-color:rgb(146,210,229);stop-opacity:1"/><stop offset="1" style="stop-color:rgb(146,210,229);stop-opacity:1"/></linearGradient>
        <linearGradient id="_Linear4" x1="0" y1="0" x2="1" y2="0" gradientUnits="userSpaceOnUse" gradientTransform="matrix(658.703,0,0,666.702,170.733,447.081)"><stop offset="0" style="stop-color:rgb(96,134,164);stop-opacity:1"/><stop offset="0.24" style="stop-color:rgb(134,191,213);stop-opacity:1"/><stop offset="0.49" style="stop-color:rgb(146,210,229);stop-opacity:1"/><stop offset="0.77" style="stop-color:rgb(223,242,247);stop-opacity:1"/><stop offset="1" style="stop-color:white;stop-opacity:1"/></linearGradient>
        <linearGradient id="_Linear5" x1="0" y1="0" x2="1" y2="0" gradientUnits="userSpaceOnUse" gradientTransform="matrix(658.703,0,0,666.702,170.733,447.081)"><stop offset="0" style="stop-color:rgb(35,40,83);stop-opacity:1"/><stop offset="0.29" style="stop-color:rgb(111,156,183);stop-opacity:1"/><stop offset="0.51" style="stop-color:rgb(146,210,229);stop-opacity:1"/><stop offset="1" style="stop-color:rgb(146,210,229);stop-opacity:1"/></linearGradient>
        <linearGradient id="_Linear6" x1="0" y1="0" x2="1" y2="0" gradientUnits="userSpaceOnUse" gradientTransform="matrix(658.703,0,0,666.702,170.733,447.081)"><stop offset="0" style="stop-color:rgb(35,40,83);stop-opacity:1"/><stop offset="0.29" style="stop-color:rgb(111,156,183);stop-opacity:1"/><stop offset="0.51" style="stop-color:rgb(146,210,229);stop-opacity:1"/><stop offset="1" style="stop-color:rgb(146,210,229);stop-opacity:1"/></linearGradient>
        <linearGradient id="_Linear7" x1="0" y1="0" x2="1" y2="0" gradientUnits="userSpaceOnUse" gradientTransform="matrix(658.703,0,0,666.702,170.733,447.081)"><stop offset="0" style="stop-color:rgb(96,134,164);stop-opacity:1"/><stop offset="0.29" style="stop-color:rgb(130,186,208);stop-opacity:1"/><stop offset="0.51" style="stop-color:rgb(146,210,229);stop-opacity:1"/><stop offset="1" style="stop-color:rgb(146,210,229);stop-opacity:1"/></linearGradient>
    </defs>
</svg>
